<?xml version="1.0" encoding="utf-8"?>
<!-- Generator: Adobe Illustrator 22.0.1, SVG Export Plug-In . SVG Version: 6.00 Build 0)  -->
<svg version="1.1" id="Layer_1" xmlns="http://www.w3.org/2000/svg" xmlns:xlink="http://www.w3.org/1999/xlink" x="0px" y="0px"
	 width="1920px" height="700px" viewBox="0 0 1920 700" style="enable-background:new 0 0 1920 700;" xml:space="preserve">
<style type="text/css">
	.st0{clip-path:url(#SVGID_2_);}
	.st1{fill:url(#duotone_1_);}
	.st2{fill:#854793;}
	.st3{fill:#FFFFFF;}
</style>
<g>
	<defs>
		<rect id="SVGID_1_" y="-1.3" width="1920" height="702.6"/>
	</defs>
	<clipPath id="SVGID_2_">
		<use xlink:href="#SVGID_1_"  style="overflow:visible;"/>
	</clipPath>
	<g id="Mask_Group_3" transform="translate(-89)" class="st0">
		<g id="Group_95" transform="translate(-4.326 -21.126)">

				<linearGradient id="duotone_1_" gradientUnits="userSpaceOnUse" x1="462.5826" y1="150.4865" x2="464.3738" y2="152.5184" gradientTransform="matrix(2013.326 0 0 702.567 -933205.6875 -106515.3281)">
				<stop  offset="0" style="stop-color:#362664"/>
				<stop  offset="0.127" style="stop-color:#362664"/>
				<stop  offset="0.277" style="stop-color:#362664"/>
				<stop  offset="0.44" style="stop-color:#362664"/>
				<stop  offset="0.526" style="stop-color:#3B2766"/>
				<stop  offset="0.638" style="stop-color:#482B6D"/>
				<stop  offset="0.763" style="stop-color:#5C3478"/>
				<stop  offset="0.898" style="stop-color:#784089"/>
				<stop  offset="1" style="stop-color:#934E9F"/>
			</linearGradient>
			<path id="duotone_3_" class="st1" d="M93.3,19.8h1920v702.6H93.3V19.8z"/>
			<path id="Path_47" class="st2" d="M963.4,722.4c0,0,91.4-249.9,361.1-156.9s52.8-329.8,362.8-266.7s117-287,426.1-297.7
				s203.3,16,203.3,16v705.2H963.4V722.4z"/>
			<path id="Path_48" class="st3" d="M1100.2,722.4c0,0,114.5,21.8,155.4-76.2s136.2-179.7,283.2-147.1s167.9-7.1,258.6-122.6
				s242.4-256,359.5-136.2s-70.8,512-70.8,512L1100.2,722.4z"/>
		</g>
	</g>
</g>
</svg>
