<?xml version="1.0" encoding="utf-8"?>
<!-- Generator: Adobe Illustrator 22.0.1, SVG Export Plug-In . SVG Version: 6.00 Build 0)  -->
<svg version="1.1" id="Layer_1" xmlns="http://www.w3.org/2000/svg" xmlns:xlink="http://www.w3.org/1999/xlink" x="0px" y="0px"
	 width="200px" height="200px" viewBox="0 0 1366 400" style="enable-background:new 0 0 1366 400;" xml:space="preserve">
<style type="text/css">
	.st0{fill:url(#SVGID_1_);}
	.st1{fill:url(#SVGID_2_);}
	.st2{fill:url(#SVGID_3_);}
	.st3{fill:url(#SVGID_4_);}
	.st4{fill:url(#SVGID_5_);}
	.st5{fill:url(#SVGID_6_);}
	.st6{fill:url(#SVGID_7_);}
	.st7{fill:url(#SVGID_8_);}
	.st8{fill:#FF8000;}
	.st9{fill:#4A017D;}
	.st10{font-family:'Ikaros';}
	.st11{font-size:57.845px;}
</style>
<g>
	<g>
		<radialGradient id="SVGID_1_" cx="270.4001" cy="84.4466" r="58.2366" gradientUnits="userSpaceOnUse">
			<stop  offset="0" style="stop-color:#872790"/>
			<stop  offset="0.1023" style="stop-color:#641A78"/>
			<stop  offset="0.2367" style="stop-color:#400E61"/>
			<stop  offset="0.3621" style="stop-color:#290852"/>
			<stop  offset="0.4738" style="stop-color:#1C034A"/>
			<stop  offset="0.5605" style="stop-color:#180047"/>
		</radialGradient>
		<path class="st0" d="M259.3,118.9c-16.1,0-29.3-13.1-29.3-29.1c0-16.2,13.1-29.3,29.4-29.3c15.8,0,29.1,12.8,29.1,29.1
			C288.5,105.8,275.6,118.9,259.3,118.9z"/>
		<linearGradient id="SVGID_2_" gradientUnits="userSpaceOnUse" x1="328.3718" y1="298.0749" x2="377.3925" y2="214.7172">
			<stop  offset="0" style="stop-color:#D15707"/>
			<stop  offset="7.500618e-02" style="stop-color:#DD6D06"/>
			<stop  offset="0.1934" style="stop-color:#EC8A04"/>
			<stop  offset="0.2993" style="stop-color:#F69D03"/>
			<stop  offset="0.3816" style="stop-color:#F9A301"/>
			<stop  offset="0.7234" style="stop-color:#F9A301"/>
		</linearGradient>
		<path class="st1" d="M389.3,333.2c-3.9-0.4-7-1.7-10-3c-15.2-6.3-28.4-15.7-40.8-26.4c-11.7-10.2-22.3-21.5-30.9-34.5
			c-5.6-8.3-10.2-17.1-12.9-26.8c-2-7-2.7-14.1-1.5-21.4c1-5.9,4.9-9.2,10.1-11.3c7.5-2.9,15.4-3.8,23.2-5.2
			c8.6-1.5,17.1-3.2,25.2-6.7c8.8-3.9,15.6-9.7,19.7-18.6c0.2-0.5,0.2-1.2,1.2-1.5c2,4.8,2.3,9.7,1.5,14.8
			c-1.4,8.6-5.1,16.4-8.5,24.3c-1.9,4.4-3.8,8.8-5.4,13.2C313.7,285.6,375,325,389.3,333.2z"/>
		<linearGradient id="SVGID_3_" gradientUnits="userSpaceOnUse" x1="124.2017" y1="205.3333" x2="172.8317" y2="307.9428">
			<stop  offset="0.4395" style="stop-color:#180047"/>
			<stop  offset="0.5262" style="stop-color:#1C034A"/>
			<stop  offset="0.6379" style="stop-color:#290852"/>
			<stop  offset="0.7633" style="stop-color:#400E61"/>
			<stop  offset="0.8977" style="stop-color:#641A78"/>
			<stop  offset="1" style="stop-color:#872790"/>
		</linearGradient>
		<path class="st2" d="M235.6,284.7l-18.7-4.5c-23.1-5.6-33.6,7.8-44.6,17.7c-8.5,7.7-44.8,51.9-50.3,58.6
			c0.6-1.3,36.6-86.7,39.2-91.7c0,0,11.2-27.3,11.3-27.7c0.1-0.3,11.9-27,17.6-40.6C198.3,230.1,215.7,257.9,235.6,284.7z"/>
		<linearGradient id="SVGID_4_" gradientUnits="userSpaceOnUse" x1="111.3515" y1="197.5941" x2="354.9416" y2="197.5941">
			<stop  offset="0.4395" style="stop-color:#180047"/>
			<stop  offset="0.5262" style="stop-color:#1C034A"/>
			<stop  offset="0.6379" style="stop-color:#290852"/>
			<stop  offset="0.7633" style="stop-color:#400E61"/>
			<stop  offset="0.8977" style="stop-color:#641A78"/>
			<stop  offset="1" style="stop-color:#872790"/>
		</linearGradient>
		<path class="st3" d="M394.6,351.2c-3.6,0.8-22,0.7-31.1-0.2c-9.3-0.9-18.5-2.6-27.5-5c-7.9-2.1-15.5-4.9-23-8.2
			C289,327,269,310.8,251.9,290.9c-8.7-10.2-16.4-21.1-23.4-32.5c-7.3-11.8-13.8-24.1-19.5-36.7c-5.2-11.4-10-22.9-14.4-34.7
			c-3-8.1-6-16.3-8.8-24.5c-3-8.8-5.7-17.8-8.4-26.7c-3.2-10.5-6.2-21-9.2-31.6c-3.2-11.4-6.4-22.8-9.6-34.2l-0.1-0.3
			c-0.4-1.3-0.8-2.7-1.1-4c-1.3-4.4-6.3-22.1-6.3-22.4c1.6,1.9,6.9,8.6,8.3,9.8c0.9,0.9,1.9,1.8,2.8,2.7c0.1,0.1,0.3,0.2,0.4,0.3
			c0.1,0.1,0.3,0.2,0.4,0.4c0.1,0.1,0.2,0.2,0.3,0.3c18.9,17.8,38.8,34.5,59.9,49.7c15.2,10.9,30.9,20.8,47.6,29.3
			c10.9,5.5,22.2,10.4,33.9,13.9c10.3,3,20.7,5.3,31.5,4.9c12.9-0.5,24.4-4.2,32.5-15.2c0.1-0.1,0.3-0.1,0.8-0.4
			c0,0.7-0.1,1.4-0.1,2.1c-8.5,34.3-48.4,35.5-63,34.8c-8.8-0.4-17.7,0.8-25.9,4c-14,5.4-30,17.3-29.9,43.6
			c0,28.7,36.2,79.8,68,100.5C349.4,344.3,381,349.7,394.6,351.2z"/>
		<radialGradient id="SVGID_5_" cx="334.8353" cy="117.3066" r="32.2111" gradientUnits="userSpaceOnUse">
			<stop  offset="0" style="stop-color:#F9A301"/>
			<stop  offset="3.632305e-02" style="stop-color:#F69D03"/>
			<stop  offset="0.3534" style="stop-color:#DD6D06"/>
			<stop  offset="0.5154" style="stop-color:#D35C07"/>
		</radialGradient>
		<circle class="st4" cx="326.4" cy="118.8" r="26.6"/>
		<linearGradient id="SVGID_6_" gradientUnits="userSpaceOnUse" x1="160.9786" y1="287.0439" x2="214.2923" y2="387.3112">
			<stop  offset="0" style="stop-color:#872790"/>
			<stop  offset="0.2219" style="stop-color:#3E0D5F"/>
			<stop  offset="0.3757" style="stop-color:#180047"/>
		</linearGradient>
		<path class="st5" d="M235.6,284.7c-1,0.4-2,0.2-2.9,0.1c-12.8-1.5-24.3,2.5-35.3,8.6c-16.5,9.3-29.9,22.5-43.6,35.3
			c-5,4.6-31.1,27.2-31.8,27.9c0,0,0,0,0,0c5.5-6.7,41.8-51,50.3-58.6c11-9.9,21.4-23.3,44.6-17.7L235.6,284.7z"/>
		<linearGradient id="SVGID_7_" gradientUnits="userSpaceOnUse" x1="173.7914" y1="246.225" x2="318.5819" y2="246.225">
			<stop  offset="0.2766" style="stop-color:#180047"/>
			<stop  offset="0.4395" style="stop-color:#180047"/>
			<stop  offset="0.5262" style="stop-color:#1C034A"/>
			<stop  offset="0.6379" style="stop-color:#290852"/>
			<stop  offset="0.7633" style="stop-color:#400E61"/>
			<stop  offset="0.8977" style="stop-color:#641A78"/>
			<stop  offset="1" style="stop-color:#872790"/>
		</linearGradient>
		<path class="st6" d="M395.2,350.9c0,0.1-0.2,0.2-0.6,0.3c-13.6-1.5-45.2-6.9-76.2-27c-31.8-20.7-68-71.8-68-100.5
			c0-26.3,15.9-38.2,29.9-43.6c8.2-3.2,17.1-4.4,25.9-4c14.5,0.7,54.5-0.6,63-34.8c-0.7,10.5-2.9,20.2-10.6,27.9
			c-4.2,4.2-9.3,6.7-14.9,8.5c-9.6,3.1-19.6,3.9-29.5,5.3c-9.5,1.3-18.9,2.8-27.6,7c-9.8,4.7-16.2,12.3-20,22.5
			c-3.7,9.8-2.1,19.3,1,28.6c9.7,28.8,27.8,51.8,50.5,71.5c11.6,10,24.3,18.4,38.1,25.1c10.1,4.9,20.6,8.9,31.6,11.6
			C390.3,349.9,392.8,350.7,395.2,350.9z"/>
		<linearGradient id="SVGID_8_" gradientUnits="userSpaceOnUse" x1="337.2567" y1="265.7961" x2="379.9337" y2="283.8833">
			<stop  offset="0.2766" style="stop-color:#F9A301"/>
			<stop  offset="0.4395" style="stop-color:#F9A301"/>
			<stop  offset="0.5603" style="stop-color:#F69D03"/>
			<stop  offset="0.7159" style="stop-color:#EC8A04"/>
			<stop  offset="0.8898" style="stop-color:#DD6D06"/>
			<stop  offset="1" style="stop-color:#D15707"/>
		</linearGradient>
		<path class="st7" d="M389.4,333.2c0,0-0.1,0-0.1,0c-14.3-8.1-75.6-47.6-29.1-103c-1.8,4.6-3.3,9.3-4.4,14.2
			c-2.4,10.4-2.8,20.9-0.7,31.6c3,14.9,10.1,27.8,19.1,39.8C378.7,321.7,383.7,327.4,389.4,333.2z"/>
		<g>
			<g id="Lane">
				<path class="st8" d="M930.1,207.1h48.6v15.7h-64.3V107.2h15.7V207.1z"/>
				<path class="st8" d="M1062.4,140v82.8h-15.5v-9.3c-3.4,2.9-7.2,5.1-11.5,6.8c-4.2,1.7-8.8,2.5-13.6,2.5
					c-5.5,0-10.7-1.1-15.4-3.2c-4.8-2.1-9-5.1-12.6-8.8c-3.6-3.7-6.4-8-8.5-13.1c-2.1-5-3.1-10.4-3.1-16.1c0-5.6,1-10.9,3.1-15.9
					c2.1-5,4.9-9.3,8.5-13c3.6-3.7,7.8-6.6,12.6-8.8c4.8-2.1,9.9-3.2,15.4-3.2c4.8,0,9.4,0.8,13.6,2.5c4.2,1.7,8.1,3.9,11.5,6.8V140
					H1062.4z M1021.8,207.8c3.2,0,6.2-0.6,9.1-1.7c2.9-1.2,5.4-2.7,7.6-4.7c2.2-2,4-4.3,5.5-7.1c1.5-2.8,2.4-5.7,2.9-8.9v-6.9
					c-0.4-3.2-1.4-6.2-2.9-8.9c-1.5-2.8-3.3-5.1-5.5-7.1c-2.2-2-4.7-3.6-7.6-4.7c-2.9-1.2-5.9-1.7-9.1-1.7c-3.4,0-6.7,0.7-9.7,2.1
					c-3.1,1.4-5.8,3.2-8.1,5.5c-2.3,2.3-4.1,5-5.5,8.2c-1.3,3.1-2,6.5-2,10c0,3.6,0.7,7,2,10.2c1.3,3.1,3.1,5.9,5.5,8.3
					c2.3,2.4,5,4.2,8.1,5.6C1015.1,207.1,1018.4,207.8,1021.8,207.8z"/>
				<path class="st8" d="M1152.6,222.6h-15v-6.4v-41.6c-1.5-5.5-4.5-10-8.8-13.5c-4.4-3.5-9.3-5.3-15-5.3c-5.3,0-9.9,1.5-13.9,4.5
					c-4,3-6.9,7-8.8,12v50.6h-16.5v-82.6h16.5v7.9c3.2-2.4,6.7-4.3,10.6-5.8c3.9-1.4,7.9-2.1,12.1-2.1c5.1,0,9.9,1,14.5,3.1
					c4.6,2,8.6,4.8,12.1,8.3c3.5,3.5,6.3,7.5,8.4,12.2c2.1,4.7,3.4,9.7,3.9,15V222.6z"/>
				<path class="st8" d="M1203.3,140c5.6,0,10.9,1.1,15.9,3.2c5,2.1,9.3,5.1,12.9,8.9c3.6,3.8,6.5,8.2,8.7,13.3
					c2.1,5.1,3.2,10.5,3.2,16.2c0,2.8-0.2,5.2-0.7,7.3h-1.7h-13.5h-49.2c0.8,2.9,1.9,5.5,3.5,7.8c1.5,2.3,3.4,4.3,5.5,6
					c2.1,1.7,4.5,3,7.2,4c2.6,0.9,5.4,1.4,8.3,1.4c5.4,0,10-1.4,13.9-4.3h20.5c-3.5,5.9-8.3,10.7-14.4,14.1
					c-6.1,3.5-12.7,5.2-20,5.2c-5.5,0-10.7-1.1-15.6-3.2c-4.9-2.1-9.2-5.1-12.8-8.8c-3.6-3.7-6.5-8.1-8.7-13.2
					c-2.1-5.1-3.2-10.5-3.2-16.2c0-5.7,1.1-11.1,3.2-16.2c2.1-5.1,5-9.5,8.7-13.3c3.6-3.8,7.9-6.8,12.8-8.9
					C1192.6,141.1,1197.8,140,1203.3,140z M1203.3,155.1c-5.8,0-11,1.8-15.4,5.5c-4.5,3.6-7.5,8.2-9,13.7h49.2
					c-0.8-2.8-2-5.3-3.6-7.6c-1.6-2.3-3.5-4.3-5.6-6c-2.1-1.7-4.5-3.1-7.2-4C1209.1,155.6,1206.3,155.1,1203.3,155.1z"/>
			</g>
			<g id="Purple">
				<path class="st9" d="M489.8,182.5c-3.5,2.2-7.3,4-11.3,5.3c-4,1.3-7.5,2-10.3,2h-18.7V223h-15.9V107.5h34.5
					c5.7,0,11.1,1.1,16,3.3c5,2.2,9.3,5.1,12.9,8.8c3.6,3.7,6.5,8,8.5,12.9c2,4.9,3.1,10.1,3.1,15.4c0,7.3-1.7,14-5.1,20.1
					C500.1,174.2,495.5,179,489.8,182.5z M449.5,173.7h18.7c3.3,0,6.4-0.7,9.3-2c2.9-1.3,5.5-3.1,7.8-5.5c2.3-2.3,4-5,5.4-8.2
					c1.3-3.1,2-6.5,2-10.2c0-3.3-0.7-6.4-2-9.4c-1.3-3-3.1-5.6-5.4-7.8c-2.3-2.3-4.8-4-7.8-5.4c-2.9-1.3-6-2-9.3-2h-18.7V173.7z"/>
				<path class="st9" d="M600.8,140.4v82.3h-14.7v-8.8c-3.4,2.8-7.1,4.9-11.1,6.4c-4,1.5-8.2,2.3-12.7,2.3c-6.9,0-13.3-1.8-19.2-5.5
					c-5.8-3.6-10.5-8.4-14-14.4c-1.5-2.8-2.8-5.7-3.8-8.8c-1-3.1-1.6-6.4-1.8-9.8c-0.1-0.7-0.2-1.3-0.2-2c0-0.7,0-1.3,0-2
					c0-0.5,0-1.2,0-1.8s0.1-1.3,0.2-2v-36h15v6.3v25.8v15.9c1.5,5.5,4.5,10,8.8,13.5c4.3,3.5,9.3,5.3,15,5.3s10.6-1.8,14.9-5.3
					c4.3-3.5,7.3-8,8.9-13.5v-47.9h0.2H600H600.8z"/>
				<path class="st9" d="M640.1,143.4c4.3-1.7,8.9-2.6,13.9-2.6v14.5c-3.5,0-6.8,0.7-9.8,2.1c-3,1.4-5.7,3.3-7.9,5.6
					c-2.3,2.4-4,5.1-5.4,8.3s-2,6.5-2,10h-0.5v41.5h-14V140h14v10.2C631.9,147.4,635.8,145.1,640.1,143.4z"/>
				<path class="st9" d="M666.7,263.8V140.2h15.7v9.3c3.5-2.9,7.4-5.1,11.7-6.8c4.3-1.7,8.9-2.5,13.9-2.5c5.5,0,10.7,1.1,15.5,3.3
					c4.8,2.2,9.1,5.2,12.7,8.9c3.6,3.7,6.5,8.1,8.6,13.1c2.1,5,3.1,10.4,3.1,16.1c0,5.7-1,11.1-3.1,16.1c-2.1,5-5,9.4-8.6,13.1
					c-3.6,3.7-7.9,6.7-12.7,8.8c-4.8,2.1-10,3.2-15.5,3.2c-5,0-9.6-0.8-13.9-2.5c-4.3-1.7-8.2-3.9-11.7-6.8v50.1H666.7z M708,155.2
					c-3.3,0-6.4,0.6-9.3,1.8c-2.9,1.2-5.5,2.8-7.8,4.9c-2.3,2-4.1,4.5-5.6,7.3c-1.5,2.8-2.5,5.8-2.9,9v6.8c0.4,3.3,1.4,6.3,2.9,9.1
					c1.5,2.8,3.4,5.2,5.6,7.3c2.3,2.1,4.8,3.7,7.8,4.9c2.9,1.2,6,1.7,9.3,1.7c3.5,0,6.8-0.7,9.9-2.1c3.1-1.4,5.8-3.3,8.1-5.7
					c2.3-2.4,4.1-5.2,5.5-8.3c1.3-3.1,2-6.5,2-10.2c0-3.6-0.7-7-2-10.2c-1.3-3.2-3.1-6-5.5-8.4c-2.3-2.4-5-4.3-8.1-5.7
					C714.8,155.9,711.5,155.2,708,155.2z"/>
				<path class="st9" d="M760.4,222.8V99.1h16.9v123.7H760.4z"/>
				<path class="st9" d="M829.4,140c5.6,0,10.9,1.1,15.9,3.2c5,2.1,9.3,5.1,12.9,8.9c3.6,3.8,6.5,8.2,8.7,13.3
					c2.1,5.1,3.2,10.5,3.2,16.2c0,2.8-0.2,5.2-0.7,7.3h-1.7h-13.5H805c0.8,2.9,1.9,5.5,3.5,7.8c1.5,2.3,3.4,4.3,5.5,6
					c2.1,1.7,4.5,3,7.2,4c2.6,0.9,5.4,1.4,8.3,1.4c5.4,0,10-1.4,13.9-4.3h20.5c-3.5,5.9-8.3,10.7-14.4,14.1
					c-6.1,3.5-12.7,5.2-20,5.2c-5.5,0-10.7-1.1-15.6-3.2c-4.9-2.1-9.2-5.1-12.8-8.8c-3.6-3.7-6.5-8.1-8.7-13.2
					c-2.1-5.1-3.2-10.5-3.2-16.2c0-5.7,1.1-11.1,3.2-16.2c2.1-5.1,5-9.5,8.7-13.3c3.6-3.8,7.9-6.8,12.8-8.9
					C818.7,141.1,823.9,140,829.4,140z M829.4,155.1c-5.8,0-11,1.8-15.4,5.5c-4.5,3.6-7.5,8.2-9,13.7h49.2c-0.8-2.8-2-5.3-3.6-7.6
					c-1.6-2.3-3.5-4.3-5.6-6c-2.1-1.7-4.5-3.1-7.2-4C835.2,155.6,832.4,155.1,829.4,155.1z"/>
			</g>
		</g>
	</g>
	<text transform="matrix(1 0 0 1 433.6163 316.8661)" class="st10 st11">Learn new thing</text>
</g>
</svg>
