<?xml version="1.0" encoding="utf-8"?>
<!-- Generator: Adobe Illustrator 22.0.1, SVG Export Plug-In . SVG Version: 6.00 Build 0)  -->
<svg version="1.1" id="b73a925f-84d4-42fb-b5d6-6e87d8bd3a11"
	 xmlns="http://www.w3.org/2000/svg" xmlns:xlink="http://www.w3.org/1999/xlink" x="0px" y="0px" width="877.6px" height="792px"
	 viewBox="0 0 877.6 792" style="enable-background:new 0 0 877.6 792;" xml:space="preserve">
<style type="text/css">
	.st0{fill:#FDB797;}
	.st1{fill:#4D8AF0;}
	.st2{opacity:0.1;enable-background:new    ;}
	.st3{fill:#662D91;}
	.st4{fill:#814E4D;}
	.st5{fill:#333333;}
	.st6{opacity:0.7;enable-background:new    ;}
	.st7{font-family:'Lato-Regular';}
	.st8{font-size:30.0821px;}
	.st9{fill:#F55F44;}
	.st10{fill:#3AD29F;}
	.st11{fill:#FFCF51;}
</style>
<title>fans</title>
<g>
	<circle class="st0" cx="557.5" cy="146.6" r="10.6"/>
	<g>
		<rect x="394.4" y="346.3" class="st1" width="88.8" height="65.6"/>
		<path class="st2" d="M394.4,363.6c0,0,33.1,3.9,44.4,3.9s44.4-3.9,44.4-3.9v-16.4h-88.8V363.6z"/>
		<path class="st3" d="M483.2,362.7c0,0-33.1,3.9-44.4,3.9s-44.4-3.9-44.4-3.9V298c0-24.5,19.9-44.4,44.4-44.4l0,0
			c24.5,0,44.4,19.9,44.4,44.4V362.7z"/>
		<path class="st0" d="M428.2,231.5h21.2l0,0v26.1c0,4.8-3.9,8.6-8.6,8.6l0,0h-3.9c-4.8,0-8.6-3.9-8.6-8.6l0,0V231.5L428.2,231.5z"
			/>
		<rect x="394.4" y="388.7" class="st1" width="31.8" height="169.2"/>
		<rect x="451.3" y="388.7" class="st1" width="31.8" height="169.2"/>
		<path class="st2" d="M428.2,247.5c7,1.7,14.2,1.7,21.2,0v-15.1h-21.2V247.5z"/>
		<circle class="st4" cx="438.8" cy="192.9" r="46.3"/>
		
			<ellipse transform="matrix(0.1602 -0.9871 0.9871 0.1602 167.6509 604.0104)" class="st0" cx="438.8" cy="203.5" rx="44.4" ry="44.4"/>
		<path class="st2" d="M411.9,181.2c2.4,1.3,5.1,2.1,7.9,2.4c11.4,1.6,22.9,0.3,33.7-3.8c1.8,4.5,6.1,7.5,10.6,9
			c4.6,1.5,9.4,1.5,14.2,1.6c1.1,0.1,2.1-0.1,3.1-0.6c2.1-1.4,1.1-4.7-0.1-7l-6.2-11.2c-1.8-3.3-3.7-6.7-6.5-9.2
			c-3.5-3.1-8.3-4.6-12.9-5.5c-11-2.2-22.3-1.8-33.1,1.1C410.9,161.1,396.1,171.6,411.9,181.2z"/>
		<path class="st4" d="M411.9,180.3c2.4,1.3,5.1,2.1,7.9,2.4c11.4,1.6,22.9,0.3,33.7-3.8c1.8,4.5,6.1,7.5,10.6,9
			c4.6,1.5,9.4,1.5,14.2,1.6c1.1,0.1,2.1-0.1,3.1-0.6c2.1-1.4,1.1-4.7-0.1-7l-6.2-11.2c-1.8-3.3-3.7-6.7-6.5-9.2
			c-3.5-3.1-8.3-4.6-12.9-5.5c-11-2.2-22.3-1.8-33.1,1.1C410.9,160.1,396.1,170.7,411.9,180.3z"/>
		<path class="st4" d="M401.9,167.4c2.6,1.3,5.6,2.1,8.5,2.4c12.4,1.6,25,0.3,36.7-3.8c1.9,4.5,6.6,7.5,11.6,9
			c5,1.5,10.3,1.5,15.5,1.6c1.2,0.1,2.3-0.1,3.3-0.6c2.3-1.4,1.2-4.7-0.2-7l-6.7-11.2c-2-3.3-4-6.7-7.1-9.2c-3.9-3.1-9-4.6-14-5.5
			c-11.9-2.2-24.3-1.8-36.1,1.1C400.8,147.3,384.7,157.8,401.9,167.4z"/>
		<ellipse class="st0" cx="482.7" cy="203.5" rx="3.9" ry="7.2"/>
		<ellipse class="st0" cx="394.9" cy="203.5" rx="3.9" ry="7.2"/>
		<path class="st3" d="M462.4,260.4c0,0,51.7-29,83.5-113.9l15.4,9.6c0,0-25.6,108.2-89.7,133.2L462.4,260.4z"/>
		<circle class="st0" cx="320.1" cy="146.6" r="10.6"/>
		<path class="st3" d="M415.2,260.4c0,0-51.7-29-83.5-113.9l-15.4,9.6c0,0,25.6,108.2,89.7,133.2L415.2,260.4z"/>
		<path class="st5" d="M407.6,551.9h5.4c6.2,0,11.3,4,11.3,8.8v3.3l0,0h-28l0,0v-3.3C396.3,555.8,401.4,551.9,407.6,551.9
			C407.6,551.9,407.6,551.9,407.6,551.9z"/>
		<path class="st5" d="M464.5,551.9h5.4c6.2,0,11.3,3.9,11.3,8.8c0,0,0,0,0,0v3.3l0,0h-28l0,0v-3.3
			C453.3,555.8,458.3,551.9,464.5,551.9C464.5,551.9,464.5,551.9,464.5,551.9z"/>
	</g>
</g>
<g>
	<text transform="matrix(1 0 0 1 156.7069 382.3346)" class="st6 st7 st8">1</text>
	<rect x="119.9" y="416" class="st1" width="88.8" height="65.6"/>
	<path class="st9" d="M119.9,433.4c0,0,33.1,3.9,44.4,3.9s44.4-3.9,44.4-3.9V417h-88.8V433.4z"/>
	<rect x="119.9" y="458.5" class="st1" width="31.8" height="159.5"/>
	<rect x="176.8" y="458.5" class="st1" width="31.8" height="159.5"/>
	<path class="st2" d="M119.9,421.8c0,0,33.1,7.7,44.4,7.7c11.3,0,44.4-7.7,44.4-7.7V417h-88.8V421.8z"/>
	<path class="st9" d="M208.6,420.9c0,0-33.1,7.7-44.4,7.7c-11.3,0-44.4-7.7-44.4-7.7v-53.1c0-24.5,19.9-44.4,44.4-44.4l0,0l0,0
		c24.5,0,44.4,19.9,44.4,44.4l0,0V420.9z"/>
	<path class="st5" d="M133.1,612.3h5.4c6.2,0,11.3,3.7,11.3,8.3v3.1l0,0h-28l0,0v-3.1C121.8,616,126.8,612.3,133.1,612.3
		C133.1,612.3,133.1,612.3,133.1,612.3z"/>
	<path class="st5" d="M190,612.3h5.4c6.2,0,11.3,3.7,11.3,8.3c0,0,0,0,0,0v3.1l0,0h-28l0,0v-3.1C178.7,616,183.8,612.3,190,612.3
		C190,612.3,190,612.3,190,612.3z"/>
	<path class="st9" d="M153.8,326.4c0,0-56.1-8.7-44.6,78.1l6.8,24.9l19.3-0.8c0,0-12.6-28.9-4.8-48.2S153.8,326.4,153.8,326.4z"/>
	<path class="st9" d="M174.7,326.4c0,0,56.1-8.7,44.6,78.1l-6.8,24.9l-19.3-0.8c0,0,12.6-28.9,4.8-48.2S174.7,326.4,174.7,326.4z"/>
	<circle class="st0" cx="126.6" cy="432.4" r="10.6"/>
	
		<ellipse transform="matrix(9.853778e-02 -0.9951 0.9951 9.853778e-02 -246.6269 592.6323)" class="st0" cx="203.8" cy="432.4" rx="10.6" ry="10.6"/>
	<path class="st2" d="M129.5,372.6c0,0-3.9,20.3,2.9,28.9"/>
	<path class="st2" d="M199,372.6c0,0,3.9,20.3-2.9,28.9"/>
	<path class="st0" d="M153.6,301.2h21.2l0,0v26.1c0,4.8-3.9,8.6-8.6,8.6l0,0h-3.9c-4.8,0-8.6-3.9-8.6-8.6l0,0V301.2L153.6,301.2z"/>
	<path class="st2" d="M153.6,317.3c7,1.7,14.2,1.7,21.2,0v-15.1h-21.2V317.3z"/>
	<circle class="st5" cx="164.2" cy="262.6" r="46.3"/>
	
		<ellipse transform="matrix(0.1602 -0.9871 0.9871 0.1602 -131.7758 391.5965)" class="st0" cx="164.2" cy="273.2" rx="44.4" ry="44.4"/>
	<ellipse class="st0" cx="208.2" cy="273.2" rx="3.9" ry="7.2"/>
	<ellipse class="st0" cx="120.3" cy="273.2" rx="3.9" ry="7.2"/>
	<path class="st5" d="M135.6,226.4c8.5-7,21.5-8.2,27.9-17.2c2.7-3.7,4.6-8.9,9.1-9.8l0.1,9.5l14.5-1.5c-2.2,6.3,3.2,12.3,6.5,18.1
		c2.4,4.3,3.7,9.1,3.9,14c-5,3-11.2-0.3-16.8-2c-5.4-1.7-11.2-1.9-16.9-2c-2.9-0.2-5.8,0-8.7,0.5c-2.5,0.7-4.9,1.6-7.2,2.6
		c-3.8,1.6-16,7.7-19.5,3.8C124.3,238.1,132.3,229.1,135.6,226.4z"/>
	<path class="st5" d="M137.2,252.9c2.4,1.3,5.1,2.1,7.9,2.4c11.4,1.6,22.9,0.3,33.7-3.8c1.8,4.5,6.1,7.5,10.6,9s9.4,1.5,14.2,1.6
		c1.1,0.1,2.1-0.1,3.1-0.6c2.1-1.4,1.1-4.7-0.1-7l-6.2-11.2c-1.8-3.3-3.7-6.7-6.5-9.2c-3.5-3.1-8.3-4.6-12.9-5.5
		c-11-2.2-22.3-1.8-33.1,1.1C136.2,232.8,121.4,243.3,137.2,252.9z"/>
</g>
<g>
	<text transform="matrix(1 0 0 1 705.8277 426.7217)" class="st6 st7 st8">1</text>
	<rect x="669" y="460.4" class="st1" width="88.8" height="65.6"/>
	<path class="st10" d="M669,477.8c0,0,33.1,3.9,44.4,3.9s44.4-3.9,44.4-3.9v-16.4H669V477.8z"/>
	<rect x="669" y="502.9" class="st1" width="31.8" height="159.5"/>
	<rect x="725.9" y="502.9" class="st1" width="31.8" height="159.5"/>
	<path class="st2" d="M669,466.2c0,0,33.1,7.7,44.4,7.7s44.4-7.7,44.4-7.7v-4.8H669V466.2z"/>
	<path class="st10" d="M757.7,465.3c0,0-33.1,7.7-44.4,7.7c-11.3,0-44.4-7.7-44.4-7.7v-53.1c0-24.5,19.9-44.4,44.4-44.4l0,0l0,0
		c24.5,0,44.4,19.9,44.4,44.4l0,0V465.3z"/>
	<path class="st10" d="M702.9,370.8c0,0-56.1-8.7-44.6,78.1l6.8,24.9l19.3-0.8c0,0-12.6-28.9-4.8-48.2S702.9,370.8,702.9,370.8z"/>
	<path class="st10" d="M723.8,370.8c0,0,56.1-8.7,44.6,78.1l-6.8,24.9l-19.3-0.8c0,0,12.6-28.9,4.8-48.2
		C739.4,405.4,723.8,370.8,723.8,370.8z"/>
	<circle class="st0" cx="675.7" cy="476.8" r="10.6"/>
	
		<ellipse transform="matrix(9.853779e-02 -0.9951 0.9951 9.853779e-02 204.2139 1179.0938)" class="st0" cx="752.9" cy="476.8" rx="10.6" ry="10.6"/>
	<path class="st2" d="M678.6,417c0,0-3.9,20.3,2.9,28.9"/>
	<path class="st2" d="M748.1,417c0,0,3.9,20.3-2.9,28.9"/>
	<path class="st0" d="M702.8,345.6h21.2l0,0v26.1c0,4.8-3.9,8.6-8.6,8.6l0,0h-3.9c-4.8,0-8.6-3.9-8.6-8.6l0,0V345.6L702.8,345.6z"/>
	<path class="st2" d="M702.8,361.7c7,1.7,14.2,1.7,21.2,0v-15.1h-21.2V361.7z"/>
	<circle class="st11" cx="713.4" cy="307" r="46.3"/>
	
		<ellipse transform="matrix(0.1602 -0.9871 0.9871 0.1602 285.5718 970.9036)" class="st0" cx="713.4" cy="317.6" rx="44.4" ry="44.4"/>
	<ellipse class="st0" cx="757.3" cy="317.6" rx="3.9" ry="7.2"/>
	<ellipse class="st0" cx="669.5" cy="317.6" rx="3.9" ry="7.2"/>
	<path class="st11" d="M670.7,291.8c0,0-2,12.9,8.9,6c10.9-7,48.7-4,60.6,6c11.9,9.9,15.9,2,17.9,0c2-2-21.5-35.2-34.8-37.8
		C687.6,259,670.7,291.8,670.7,291.8z"/>
	<path class="st11" d="M675.2,269.6c3-3.7,2.4-9.7,6-12.7c4.9-4,13,0.9,18.4-2.5c2.9-1.8,4-5.5,6.1-8.3c4.2-5.5,13-6.7,18.5-2.4
		c1,0.9,2.1,1.8,3.2,2.6c4.2,2.5,9.4,0.5,14.1-0.7c3-0.8,6.1-1.2,9.2-1.3c1.5-0.1,2.9,0.1,4.2,0.8c2.2,1.2,2.9,4,2.8,6.5
		c-0.1,2.5-0.8,4.9-0.7,7.4c0,0.7,0.2,1.4,0.7,2c0.4,0.3,0.9,0.5,1.5,0.6c2,0.7,3.3,2.7,4.1,4.7c2.3,5.8,1.6,12.3-1.7,17.5
		c-0.7,0.9-1.3,2-1.8,3.1c-0.3,1.2-0.4,2.4-0.4,3.6c-0.2,4.2-2,8.8-5.9,10.6c-5,2.3-10.5-0.9-15.4-3.3c-11.1-5.5-23.6-7.4-35.9-8.7
		c-5.5-0.7-11.1-1-16.7-1c-4.1,0-9.7,1.8-13.7,0.1c-3.1-1.3-4.2-4.3-4-7.6C668.3,275,672.2,273.4,675.2,269.6z"/>
	<path class="st5" d="M682.2,656.7h5.4c6.2,0,11.3,3.7,11.3,8.3v3.1l0,0h-28l0,0V665C670.9,660.4,675.9,656.7,682.2,656.7
		C682.2,656.7,682.2,656.7,682.2,656.7z"/>
	<path class="st5" d="M739.1,656.7h5.4c6.2,0,11.3,3.7,11.3,8.3c0,0,0,0,0,0v3.1l0,0h-28l0,0V665
		C727.8,660.4,732.9,656.7,739.1,656.7C739.1,656.7,739.1,656.7,739.1,656.7z"/>
</g>
<path class="st3" d="M857.8,792H19.8C8.9,792,0,783.1,0,772.2v0c0-10.9,8.9-19.8,19.8-19.8h837.9c10.9,0,19.8,8.9,19.8,19.8v0
	C877.6,783.1,868.7,792,857.8,792z"/>
<g>
	<path class="st3" d="M248.2,772.2h-168V653.7c0-16.9,13.7-30.6,30.6-30.6h106.8c16.9,0,30.6,13.7,30.6,30.6V772.2z"/>
	<path class="st3" d="M797.3,772.2h-168v-73.8c0-16.9,13.7-30.6,30.6-30.6h106.8c16.9,0,30.6,13.7,30.6,30.6V772.2z"/>
</g>
<path class="st3" d="M522.8,772.2h-168V594c0-16.9,13.7-30.6,30.6-30.6h106.8c16.9,0,30.6,13.7,30.6,30.6V772.2z"/>
</svg>
