<svg xmlns="http://www.w3.org/2000/svg" xmlns:xlink="http://www.w3.org/1999/xlink" viewBox="0 0 603 141.851">
  <defs>
    <style>
      .cls-1 {
        fill: #fff;
      }

      .cls-2 {
        fill: url(#radial-gradient);
      }

      .cls-3 {
        fill: url(#linear-gradient);
      }

      .cls-4 {
        fill: url(#linear-gradient-2);
      }

      .cls-5 {
        fill: url(#linear-gradient-3);
      }

      .cls-6 {
        fill: url(#radial-gradient-2);
      }

      .cls-7 {
        fill: url(#linear-gradient-4);
      }

      .cls-8 {
        fill: url(#linear-gradient-5);
      }

      .cls-9 {
        fill: url(#linear-gradient-6);
      }

      .cls-10 {
        fill: #f7941d;
      }

      .cls-11 {
        fill: #662d91;
      }
    </style>
    <radialGradient id="radial-gradient" cx="113.2" cy="21.394" r="11.854" gradientTransform="translate(0.009 0.008)" gradientUnits="userSpaceOnUse">
      <stop offset="0" stop-color="#934e9f"/>
      <stop offset="0.102" stop-color="#784089"/>
      <stop offset="0.237" stop-color="#5c3478"/>
      <stop offset="0.362" stop-color="#482b6d"/>
      <stop offset="0.474" stop-color="#3b2766"/>
      <stop offset="0.561" stop-color="#362664"/>
    </radialGradient>
    <linearGradient id="linear-gradient" x1="0.37" y1="0.774" x2="0.877" y2="0.238" gradientUnits="objectBoundingBox">
      <stop offset="0" stop-color="#ce752a"/>
      <stop offset="0.075" stop-color="#d88428"/>
      <stop offset="0.193" stop-color="#e79923"/>
      <stop offset="0.299" stop-color="#f1a81e"/>
      <stop offset="0.382" stop-color="#f5ad1c"/>
      <stop offset="0.723" stop-color="#f5ad1c"/>
    </linearGradient>
    <linearGradient id="linear-gradient-2" x1="0.019" y1="0.055" x2="0.447" y2="0.697" gradientUnits="objectBoundingBox">
      <stop offset="0.44" stop-color="#362664"/>
      <stop offset="0.526" stop-color="#3b2766"/>
      <stop offset="0.638" stop-color="#482b6d"/>
      <stop offset="0.763" stop-color="#5c3478"/>
      <stop offset="0.898" stop-color="#784089"/>
      <stop offset="1" stop-color="#934e9f"/>
    </linearGradient>
    <linearGradient id="linear-gradient-3" x1="-0.163" y1="0.5" x2="0.837" y2="0.5" xlink:href="#linear-gradient-2"/>
    <radialGradient id="radial-gradient-2" cx="7.132" cy="5.103" r="6.546" gradientUnits="userSpaceOnUse">
      <stop offset="0" stop-color="#f5ad1c"/>
      <stop offset="0.036" stop-color="#f1a81e"/>
      <stop offset="0.353" stop-color="#d88427"/>
      <stop offset="0.515" stop-color="#d0782a"/>
    </radialGradient>
    <linearGradient id="linear-gradient-4" x1="0.343" y1="0.104" x2="0.812" y2="1.396" gradientUnits="objectBoundingBox">
      <stop offset="0" stop-color="#934e9f"/>
      <stop offset="0.222" stop-color="#5a3377"/>
      <stop offset="0.376" stop-color="#362664"/>
    </linearGradient>
    <linearGradient id="linear-gradient-5" x1="-0.529" y1="0.5" x2="0.471" y2="0.5" gradientUnits="objectBoundingBox">
      <stop offset="0.277" stop-color="#362664"/>
      <stop offset="0.44" stop-color="#362664"/>
      <stop offset="0.526" stop-color="#3b2766"/>
      <stop offset="0.638" stop-color="#482b6d"/>
      <stop offset="0.763" stop-color="#5c3478"/>
      <stop offset="0.898" stop-color="#784089"/>
      <stop offset="1" stop-color="#934e9f"/>
    </linearGradient>
    <linearGradient id="linear-gradient-6" x1="-0.124" y1="0.346" x2="0.797" y2="0.521" gradientUnits="objectBoundingBox">
      <stop offset="0.277" stop-color="#f5ad1c"/>
      <stop offset="0.44" stop-color="#f5ad1c"/>
      <stop offset="0.56" stop-color="#f1a81e"/>
      <stop offset="0.716" stop-color="#e79923"/>
      <stop offset="0.89" stop-color="#d88428"/>
      <stop offset="1" stop-color="#ce752a"/>
    </linearGradient>
  </defs>
  <g id="Group_439" data-name="Group 439" transform="translate(158 59.738)">
    <path id="Path_449" data-name="Path 449" class="cls-1" d="M0,0H24.7A70.912,70.912,0,0,1,95.63,70.926h0a70.912,70.912,0,0,0,70.926,70.926H436.577A70.912,70.912,0,0,0,507.5,70.926h0A70.714,70.714,0,0,1,578.3,0H0Z" transform="translate(-158 -59.738)"/>
    <g id="Group_29" data-name="Group 29" transform="translate(0 -18)">
      <path id="Path_18" data-name="Path 18" class="cls-2" d="M113.954,28.867a5.934,5.934,0,1,1,5.934-5.954A5.954,5.954,0,0,1,113.954,28.867Z" transform="translate(-86.053 -13.545)"/>
      <path id="Path_19" data-name="Path 19" class="cls-3" d="M190.159,165.879a6.618,6.618,0,0,1-2.032-.61,30.872,30.872,0,0,1-8.291-5.365,34.942,34.942,0,0,1-6.279-7.011,18.731,18.731,0,0,1-2.621-5.446,9.825,9.825,0,0,1-.3-4.349,2.963,2.963,0,0,1,2.052-2.3,25.1,25.1,0,0,1,4.714-1.057,22.421,22.421,0,0,0,5.121-1.361,7.507,7.507,0,0,0,4-3.78c.041-.1.041-.244.244-.3a5.43,5.43,0,0,1,.3,3.007,21.269,21.269,0,0,1-1.727,4.938c-.386.894-.772,1.788-1.1,2.682C174.8,156.206,187.274,164.233,190.159,165.879Z" transform="translate(-135.862 -107.009)"/>
      <path id="Path_20" data-name="Path 20" class="cls-4" d="M23.085,170.923l-3.8-.914c-4.694-1.138-6.828,1.585-9.063,3.6C8.494,175.15,1.118,184.152,0,185.513c.122-.264,7.437-17.618,7.966-18.634,0,0,2.276-5.548,2.3-5.629.02-.061,2.418-5.487,3.576-8.25C15.485,159.828,19.041,165.477,23.085,170.923Z" transform="translate(0 -121.909)"/>
      <path id="Path_21" data-name="Path 21" class="cls-5" d="M78.5,62.527a38.729,38.729,0,0,1-6.32-.041,34.658,34.658,0,0,1-5.588-1.016A31.984,31.984,0,0,1,61.92,59.8a35.458,35.458,0,0,1-12.436-9.51,52.289,52.289,0,0,1-4.755-6.6,65.487,65.487,0,0,1-3.963-7.458c-1.057-2.317-2.032-4.653-2.926-7.051-.61-1.646-1.219-3.312-1.788-4.979-.61-1.788-1.158-3.617-1.707-5.426-.65-2.134-1.26-4.267-1.87-6.421l-1.951-6.95-.02-.061c-.081-.264-.163-.549-.224-.813C30.016,3.637,29,.061,29,0c.325.386,1.4,1.748,1.687,1.991.183.183.386.366.569.549.02.02.061.041.081.061s.061.041.081.081l.061.061a120.38,120.38,0,0,0,12.152,10.1A74.884,74.884,0,0,0,53.3,18.8a42.3,42.3,0,0,0,6.889,2.825,20.162,20.162,0,0,0,6.4,1c2.621-.1,4.958-.853,6.6-3.089.02-.02.061-.02.163-.081,0,.142-.02.284-.02.427-1.727,6.97-9.835,7.214-12.8,7.072a12.887,12.887,0,0,0-5.263.813,8.856,8.856,0,0,0-6.076,8.86c0,5.832,7.356,16.216,13.818,20.422A36.507,36.507,0,0,0,78.5,62.527Z" transform="translate(-23.107)"/>
      <circle id="Ellipse_6" data-name="Ellipse 6" class="cls-6" cx="5.405" cy="5.405" r="5.405" transform="translate(36.11 9.896)"/>
      <path id="Path_22" data-name="Path 22" class="cls-7" d="M23.085,236.641a1.167,1.167,0,0,1-.589.02,11.746,11.746,0,0,0-7.173,1.748c-3.353,1.89-6.076,4.572-8.86,7.173-1.016.935-6.32,5.527-6.462,5.67H0c1.118-1.361,8.494-10.364,10.221-11.908,2.235-2.012,4.349-4.735,9.063-3.6Z" transform="translate(0 -187.627)"/>
      <path id="Path_23" data-name="Path 23" class="cls-8" d="M157.825,140.393q0,.03-.122.061a36.594,36.594,0,0,1-15.484-5.487c-6.462-4.206-13.818-14.59-13.818-20.422a8.88,8.88,0,0,1,6.076-8.86,12.887,12.887,0,0,1,5.263-.813c2.947.142,11.075-.122,12.8-7.072a8.291,8.291,0,0,1-2.154,5.67,7.28,7.28,0,0,1-3.028,1.727,35.316,35.316,0,0,1-5.995,1.077,18.373,18.373,0,0,0-5.609,1.422,7.853,7.853,0,0,0-4.064,4.572,8.4,8.4,0,0,0,.2,5.812,33.313,33.313,0,0,0,10.262,14.529,35.7,35.7,0,0,0,7.742,5.1,32.4,32.4,0,0,0,6.421,2.357A9.943,9.943,0,0,0,157.825,140.393Z" transform="translate(-102.308 -77.926)"/>
      <path id="Path_24" data-name="Path 24" class="cls-9" d="M230.378,207.631h-.02c-2.906-1.646-15.363-9.673-5.913-20.931a19.8,19.8,0,0,0-.894,2.886,15.191,15.191,0,0,0-.142,6.421,20.063,20.063,0,0,0,3.881,8.088A40.463,40.463,0,0,0,230.378,207.631Z" transform="translate(-176.06 -148.761)"/>
      <g id="Group_28" data-name="Group 28" transform="translate(63.3 11.298)">
        <g id="Lane_1_" transform="translate(97.723 1.646)">
          <path id="Path_25" data-name="Path 25" class="cls-10" d="M795.59,84h9.876v3.19H792.4V63.7h3.19Z" transform="translate(-792.4 -63.7)"/>
          <path id="Path_26" data-name="Path 26" class="cls-10" d="M876.5,96.5v16.826h-3.15v-1.89a8.165,8.165,0,0,1-2.337,1.382,7.341,7.341,0,0,1-2.764.508,7.635,7.635,0,0,1-3.129-.65,8.081,8.081,0,0,1-2.561-1.788,8.252,8.252,0,0,1-1.727-2.662,8.379,8.379,0,0,1-.63-3.272,8.251,8.251,0,0,1,.63-3.231,8.267,8.267,0,0,1,4.288-4.43,7.705,7.705,0,0,1,3.129-.65,7.341,7.341,0,0,1,2.764.508,8.449,8.449,0,0,1,2.337,1.382V96.5Zm-8.271,13.778a5.036,5.036,0,0,0,3.394-1.3,5.276,5.276,0,0,0,1.118-1.443,5.568,5.568,0,0,0,.589-1.809v-1.4a4.988,4.988,0,0,0-.589-1.809,5.276,5.276,0,0,0-1.118-1.443,4.815,4.815,0,0,0-1.544-.955,4.749,4.749,0,0,0-1.849-.345,4.647,4.647,0,0,0-1.971.427,5.484,5.484,0,0,0-1.646,1.118,5.335,5.335,0,0,0-1.118,1.666,5.257,5.257,0,0,0-.406,2.032,5.461,5.461,0,0,0,.406,2.073,5.318,5.318,0,0,0,2.764,2.825A5.845,5.845,0,0,0,868.227,110.278Z" transform="translate(-846.423 -89.835)"/>
          <path id="Path_27" data-name="Path 27" class="cls-10" d="M968.45,113.444H965.4V103.69a5.247,5.247,0,0,0-1.788-2.743,4.735,4.735,0,0,0-3.048-1.077,4.566,4.566,0,0,0-2.825.914,5.323,5.323,0,0,0-1.788,2.439v10.282H952.6V96.7h3.353v1.605a8.831,8.831,0,0,1,2.154-1.179,7.2,7.2,0,0,1,2.459-.427,6.983,6.983,0,0,1,2.947.63,7.914,7.914,0,0,1,2.459,1.687,8.173,8.173,0,0,1,1.707,2.479,9.636,9.636,0,0,1,.792,3.048v8.9Z" transform="translate(-920.046 -89.994)"/>
          <path id="Path_28" data-name="Path 28" class="cls-10" d="M1049.269,96.5a8.266,8.266,0,0,1,3.231.65,7.666,7.666,0,0,1,2.622,1.809,9.16,9.16,0,0,1,1.768,2.7,8.568,8.568,0,0,1,.65,3.292,6.456,6.456,0,0,1-.142,1.483h-13.087a5.11,5.11,0,0,0,.711,1.585,5.328,5.328,0,0,0,1.118,1.219,5,5,0,0,0,3.15,1.1,4.58,4.58,0,0,0,2.825-.874h4.166a7.769,7.769,0,0,1-2.926,2.865,8.116,8.116,0,0,1-9.835-1.382,8.8,8.8,0,0,1-1.768-2.682,8.659,8.659,0,0,1,0-6.584,8.422,8.422,0,0,1,1.768-2.7,7.782,7.782,0,0,1,2.6-1.809A7.491,7.491,0,0,1,1049.269,96.5Zm0,3.068a4.73,4.73,0,0,0-3.129,1.118,5.261,5.261,0,0,0-1.829,2.784h10a5.15,5.15,0,0,0-.732-1.544,5.918,5.918,0,0,0-1.138-1.219,4.675,4.675,0,0,0-1.463-.813A4.33,4.33,0,0,0,1049.269,99.568Z" transform="translate(-990.562 -89.835)"/>
        </g>
        <g id="Purple_1_">
          <path id="Path_29" data-name="Path 29" class="cls-11" d="M322.92,79.241a10.314,10.314,0,0,1-2.3,1.077,7.087,7.087,0,0,1-2.093.406h-3.8v6.747H311.5V64h7.011a7.892,7.892,0,0,1,3.251.671A8.3,8.3,0,0,1,325.7,76.294,7.626,7.626,0,0,1,322.92,79.241Zm-8.189-1.788h3.8a4.574,4.574,0,0,0,1.89-.406,5,5,0,0,0,1.585-1.118,5.317,5.317,0,0,0,1.5-3.739,4.741,4.741,0,0,0-.406-1.91,4.821,4.821,0,0,0-1.1-1.585,5.4,5.4,0,0,0-1.585-1.1,4.574,4.574,0,0,0-1.89-.406h-3.8Z" transform="translate(-311.5 -62.293)"/>
          <path id="Path_30" data-name="Path 30" class="cls-11" d="M417.049,96.82v16.724h-2.987v-1.788a7.853,7.853,0,0,1-2.256,1.3,7.365,7.365,0,0,1-6.482-.65,8.35,8.35,0,0,1-2.845-2.926,10.794,10.794,0,0,1-.772-1.788,8.031,8.031,0,0,1-.366-1.991,2.753,2.753,0,0,1-.041-.406v-.772a3.053,3.053,0,0,1,.041-.406V96.8h3.048v9.754a5.248,5.248,0,0,0,1.788,2.743,4.7,4.7,0,0,0,3.048,1.077,4.641,4.641,0,0,0,3.028-1.077,5.407,5.407,0,0,0,1.809-2.743V96.82h2.987Z" transform="translate(-383.052 -88.428)"/>
          <path id="Path_31" data-name="Path 31" class="cls-11" d="M497.622,97.191a7.593,7.593,0,0,1,2.825-.528v2.947a4.672,4.672,0,0,0-1.991.427,5.351,5.351,0,0,0-1.605,1.138,5.622,5.622,0,0,0-1.1,1.687,4.975,4.975,0,0,0-.406,2.032h-.1v8.433H492.4V96.5h2.845v2.073A9.22,9.22,0,0,1,497.622,97.191Z" transform="translate(-455.64 -88.189)"/>
          <path id="Path_32" data-name="Path 32" class="cls-11" d="M544.7,121.817V96.7h3.19v1.89a8.673,8.673,0,0,1,2.378-1.382,7.584,7.584,0,0,1,2.825-.508,7.491,7.491,0,0,1,3.15.671,8.417,8.417,0,0,1,4.328,4.471,8.812,8.812,0,0,1,0,6.543,8.531,8.531,0,0,1-1.748,2.662,8.168,8.168,0,0,1-2.581,1.788,7.8,7.8,0,0,1-3.15.65,7.584,7.584,0,0,1-2.825-.508,8.673,8.673,0,0,1-2.378-1.382v10.181H544.7Zm8.393-22.068a4.893,4.893,0,0,0-1.89.366,5.356,5.356,0,0,0-1.585,1,5.153,5.153,0,0,0-1.138,1.483,5.225,5.225,0,0,0-.589,1.829V105.8a5.2,5.2,0,0,0,.589,1.849,5.88,5.88,0,0,0,1.138,1.483,5.11,5.11,0,0,0,1.585,1,4.881,4.881,0,0,0,1.89.345,4.831,4.831,0,0,0,2.012-.427,5.249,5.249,0,0,0,1.646-1.158,5.95,5.95,0,0,0,1.118-1.687,5.309,5.309,0,0,0,.406-2.073,5.459,5.459,0,0,0-.406-2.073,5.078,5.078,0,0,0-1.118-1.707A5.25,5.25,0,0,0,555.1,100.2,4.551,4.551,0,0,0,553.093,99.748Z" transform="translate(-497.312 -88.348)"/>
          <path id="Path_33" data-name="Path 33" class="cls-11" d="M638.3,80.737V55.6h3.434V80.737H638.3Z" transform="translate(-571.891 -55.6)"/>
          <path id="Path_34" data-name="Path 34" class="cls-11" d="M675.369,96.5a8.266,8.266,0,0,1,3.231.65,7.666,7.666,0,0,1,2.622,1.809,9.155,9.155,0,0,1,1.768,2.7,8.568,8.568,0,0,1,.65,3.292,6.449,6.449,0,0,1-.142,1.483H670.411a5.11,5.11,0,0,0,.711,1.585,5.328,5.328,0,0,0,1.118,1.219,5,5,0,0,0,3.15,1.1,4.581,4.581,0,0,0,2.825-.874h4.166a7.768,7.768,0,0,1-2.926,2.865,8.116,8.116,0,0,1-9.835-1.382,8.8,8.8,0,0,1-1.768-2.682,8.658,8.658,0,0,1,0-6.584,8.42,8.42,0,0,1,1.768-2.7,7.782,7.782,0,0,1,2.6-1.809A7.491,7.491,0,0,1,675.369,96.5Zm0,3.068a4.73,4.73,0,0,0-3.129,1.118,5.261,5.261,0,0,0-1.829,2.784h10a5.15,5.15,0,0,0-.732-1.544,5.914,5.914,0,0,0-1.138-1.219,4.673,4.673,0,0,0-1.463-.813A4.33,4.33,0,0,0,675.369,99.568Z" transform="translate(-594.919 -88.189)"/>
        </g>
      </g>
    </g>
  </g>
</svg>
